<svg xmlns="http://www.w3.org/2000/svg" width="24" height="24" viewBox="0 0 24 24" fill="none">
  <path fill="currentColor" fill-rule="evenodd" d="M3 4.5A1.5 1.5 0 0 1 4.5 3h5A1.5 1.5 0 0 1 11 4.5v5A1.5 1.5 0 0 1 9.5 11h-5A1.5 1.5 0 0 1 3 9.5v-5Zm5.85 1.1-3.1 3.1L4.15 7.0l.7-.7.9.9 2.4-2.4.7.8Z" clip-rule="evenodd"/>
  <path fill="currentColor" fill-rule="evenodd" d="M3 15.5A1.5 1.5 0 0 1 4.5 14h5A1.5 1.5 0 0 1 11 15.5v5A1.5 1.5 0 0 1 9.5 22h-5A1.5 1.5 0 0 1 3 20.5v-5Zm5.85 1.1-3.1 3.1-1.6-1.7.7-.7.9.9 2.4-2.4.7.8Z" clip-rule="evenodd"/>
  <path fill="currentColor" d="M14 5.5h7v2h-7zM14 16.5h7v2h-7z"/>
</svg>
